<?xml version="1.0" encoding="UTF-8"?>
<svg width="235px" height="50px" viewBox="0 0 235 50" version="1.1" xmlns="http://www.w3.org/2000/svg" xmlns:xlink="http://www.w3.org/1999/xlink">
    <title>Group</title>
    <g id="Page-1" stroke="none" stroke-width="1" fill="none" fill-rule="evenodd">
        <g id="Group" transform="translate(0.247000, 0.352000)" fill="#FFFFFF" fill-rule="nonzero">
            <g id="PHOTOGRAPHY" transform="translate(1.363000, 28.000000)">
                <path d="M15.718,7.163 C15.718,6.119 15.5391667,5.18133333 15.1815,4.35 C14.8238333,3.51866667 14.3115,2.80333333 13.6445,2.204 C12.9775,1.60466667 12.1655,1.1455 11.2085,0.8265 C10.2515,0.5075 9.18333333,0.348 8.004,0.348 L0,0.348 L0,20.648 L3.567,20.648 L3.567,14.123 L7.598,14.123 C8.71933333,14.123 9.773,13.9731667 10.759,13.6735 C11.745,13.3738333 12.6053333,12.934 13.34,12.354 C14.0746667,11.774 14.6546667,11.049 15.08,10.179 C15.5053333,9.309 15.718,8.30366667 15.718,7.163 Z M12.093,7.25 C12.093,8.352 11.7015,9.2365 10.9185,9.9035 C10.1355,10.5705 9.06733333,10.904 7.714,10.904 L3.567,10.904 L3.567,3.596 L7.714,3.596 C9.048,3.596 10.1113333,3.9005 10.904,4.5095 C11.6966667,5.1185 12.093,6.032 12.093,7.25 Z" id="Shape"></path>
                <polygon id="Path" points="32.625 12.093 32.625 20.648 36.192 20.648 36.192 0.348 32.625 0.348 32.625 8.787 22.939 8.787 22.939 0.348 19.372 0.348 19.372 20.648 22.939 20.648 22.939 12.093"></polygon>
                <path d="M61.741,10.469 C61.741,9.03833333 61.48,7.685 60.958,6.409 C60.436,5.133 59.711,4.02133333 58.783,3.074 C57.855,2.12666667 56.7433333,1.3775 55.448,0.8265 C54.1526667,0.2755 52.722,0 51.156,0 C49.59,0 48.1593333,0.280333333 46.864,0.841 C45.5686667,1.40166667 44.4473333,2.1605 43.5,3.1175 C42.5526667,4.0745 41.818,5.191 41.296,6.467 C40.774,7.743 40.513,9.09633333 40.513,10.527 C40.513,11.9576667 40.774,13.311 41.296,14.587 C41.818,15.863 42.543,16.9746667 43.471,17.922 C44.399,18.8693333 45.5106667,19.6185 46.806,20.1695 C48.1013333,20.7205 49.532,20.996 51.098,20.996 C52.664,20.996 54.0946667,20.7156667 55.39,20.155 C56.6853333,19.5943333 57.8066667,18.8355 58.754,17.8785 C59.7013333,16.9215 60.436,15.805 60.958,14.529 C61.48,13.253 61.741,11.8996667 61.741,10.469 Z M58,10.527 C58,11.513 57.8308333,12.4458333 57.4925,13.3255 C57.1541667,14.2051667 56.6853333,14.9688333 56.086,15.6165 C55.4866667,16.2641667 54.7665,16.7765 53.9255,17.1535 C53.0845,17.5305 52.1613333,17.719 51.156,17.719 C50.1506667,17.719 49.2226667,17.5256667 48.372,17.139 C47.5213333,16.7523333 46.7915,16.2303333 46.1825,15.573 C45.5735,14.9156667 45.0998333,14.1471667 44.7615,13.2675 C44.4231667,12.3878333 44.254,11.455 44.254,10.469 C44.254,9.483 44.4231667,8.55016667 44.7615,7.6705 C45.0998333,6.79083333 45.5686667,6.02716667 46.168,5.3795 C46.7673333,4.73183333 47.4875,4.2195 48.3285,3.8425 C49.1695,3.4655 50.0926667,3.277 51.098,3.277 C52.1033333,3.277 53.0313333,3.47033333 53.882,3.857 C54.7326667,4.24366667 55.4625,4.76566667 56.0715,5.423 C56.6805,6.08033333 57.1541667,6.84883333 57.4925,7.7285 C57.8308333,8.60816667 58,9.541 58,10.527 Z" id="Shape"></path>
                <polygon id="Path" points="73.544 3.654 79.982 3.654 79.982 0.348 63.51 0.348 63.51 3.654 69.948 3.654 69.948 20.648 73.544 20.648"></polygon>
                <path d="M102.979,10.469 C102.979,9.03833333 102.718,7.685 102.196,6.409 C101.674,5.133 100.949,4.02133333 100.021,3.074 C99.093,2.12666667 97.9813333,1.3775 96.686,0.8265 C95.3906667,0.2755 93.96,0 92.394,0 C90.828,0 89.3973333,0.280333333 88.102,0.841 C86.8066667,1.40166667 85.6853333,2.1605 84.738,3.1175 C83.7906667,4.0745 83.056,5.191 82.534,6.467 C82.012,7.743 81.751,9.09633333 81.751,10.527 C81.751,11.9576667 82.012,13.311 82.534,14.587 C83.056,15.863 83.781,16.9746667 84.709,17.922 C85.637,18.8693333 86.7486667,19.6185 88.044,20.1695 C89.3393333,20.7205 90.77,20.996 92.336,20.996 C93.902,20.996 95.3326667,20.7156667 96.628,20.155 C97.9233333,19.5943333 99.0446667,18.8355 99.992,17.8785 C100.939333,16.9215 101.674,15.805 102.196,14.529 C102.718,13.253 102.979,11.8996667 102.979,10.469 Z M99.238,10.527 C99.238,11.513 99.0688333,12.4458333 98.7305,13.3255 C98.3921667,14.2051667 97.9233333,14.9688333 97.324,15.6165 C96.7246667,16.2641667 96.0045,16.7765 95.1635,17.1535 C94.3225,17.5305 93.3993333,17.719 92.394,17.719 C91.3886667,17.719 90.4606667,17.5256667 89.61,17.139 C88.7593333,16.7523333 88.0295,16.2303333 87.4205,15.573 C86.8115,14.9156667 86.3378333,14.1471667 85.9995,13.2675 C85.6611667,12.3878333 85.492,11.455 85.492,10.469 C85.492,9.483 85.6611667,8.55016667 85.9995,7.6705 C86.3378333,6.79083333 86.8066667,6.02716667 87.406,5.3795 C88.0053333,4.73183333 88.7255,4.2195 89.5665,3.8425 C90.4075,3.4655 91.3306667,3.277 92.336,3.277 C93.3413333,3.277 94.2693333,3.47033333 95.12,3.857 C95.9706667,4.24366667 96.7005,4.76566667 97.3095,5.423 C97.9185,6.08033333 98.3921667,6.84883333 98.7305,7.7285 C99.0688333,8.60816667 99.238,9.541 99.238,10.527 Z" id="Shape"></path>
                <path d="M125.396,17.835 L125.396,9.309 L116.754,9.309 L116.754,12.412 L121.945,12.412 L121.945,16.211 C121.326333,16.675 120.5965,17.0471667 119.7555,17.3275 C118.9145,17.6078333 118.010667,17.748 117.044,17.748 C116,17.748 115.0575,17.5643333 114.2165,17.197 C113.3755,16.8296667 112.6505,16.3221667 112.0415,15.6745 C111.4325,15.0268333 110.963667,14.2583333 110.635,13.369 C110.306333,12.4796667 110.142,11.513 110.142,10.469 C110.142,9.483 110.311167,8.555 110.6495,7.685 C110.987833,6.815 111.451833,6.05133333 112.0415,5.394 C112.631167,4.73666667 113.327167,4.2195 114.1295,3.8425 C114.931833,3.4655 115.797,3.277 116.725,3.277 C117.363,3.277 117.947833,3.33016667 118.4795,3.4365 C119.011167,3.54283333 119.499333,3.68783333 119.944,3.8715 C120.388667,4.05516667 120.814,4.28233333 121.22,4.553 C121.626,4.82366667 122.022333,5.12333333 122.409,5.452 L124.671,2.755 C124.149,2.31033333 123.6125,1.91883333 123.0615,1.5805 C122.5105,1.24216667 121.925667,0.957 121.307,0.725 C120.688333,0.493 120.0165,0.314166667 119.2915,0.1885 C118.5665,0.0628333333 117.759333,0 116.87,0 C115.342667,0 113.936167,0.280333333 112.6505,0.841 C111.364833,1.40166667 110.258,2.1605 109.33,3.1175 C108.402,4.0745 107.681833,5.191 107.1695,6.467 C106.657167,7.743 106.401,9.09633333 106.401,10.527 C106.401,12.0156667 106.652333,13.398 107.155,14.674 C107.657667,15.95 108.368167,17.0568333 109.2865,17.9945 C110.204833,18.9321667 111.311667,19.6668333 112.607,20.1985 C113.902333,20.7301667 115.342667,20.996 116.928,20.996 C117.817333,20.996 118.668,20.9138333 119.48,20.7495 C120.292,20.5851667 121.050833,20.358 121.7565,20.068 C122.462167,19.778 123.1195,19.4396667 123.7285,19.053 C124.3375,18.6663333 124.893333,18.2603333 125.396,17.835 Z" id="Path"></path>
                <path d="M147.262,20.648 L141.781,12.963 C142.496333,12.7696667 143.148833,12.4941667 143.7385,12.1365 C144.328167,11.7788333 144.835667,11.3438333 145.261,10.8315 C145.686333,10.3191667 146.019833,9.7295 146.2615,9.0625 C146.503167,8.3955 146.624,7.63666667 146.624,6.786 C146.624,5.8 146.45,4.90583333 146.102,4.1035 C145.754,3.30116667 145.256167,2.6245 144.6085,2.0735 C143.960833,1.5225 143.168167,1.09716667 142.2305,0.7975 C141.292833,0.497833333 140.244,0.348 139.084,0.348 L130.036,0.348 L130.036,20.648 L133.603,20.648 L133.603,13.572 L138.069,13.572 L143.057,20.648 L147.262,20.648 Z M142.999,6.989 C142.999,8.033 142.622,8.86433333 141.868,9.483 C141.114,10.1016667 140.099,10.411 138.823,10.411 L133.603,10.411 L133.603,3.596 L138.794,3.596 C140.128,3.596 141.162333,3.88116667 141.897,4.4515 C142.631667,5.02183333 142.999,5.86766667 142.999,6.989 Z" id="Shape"></path>
                <path d="M161.501,0.203 L158.195,0.203 L149.263,20.648 L152.917,20.648 L155.005,15.747 L164.604,15.747 L166.663,20.648 L170.433,20.648 L161.501,0.203 Z M163.299,12.586 L156.31,12.586 L159.79,4.466 L163.299,12.586 Z" id="Shape"></path>
                <path d="M189.631,7.163 C189.631,6.119 189.452167,5.18133333 189.0945,4.35 C188.736833,3.51866667 188.2245,2.80333333 187.5575,2.204 C186.8905,1.60466667 186.0785,1.1455 185.1215,0.8265 C184.1645,0.5075 183.096333,0.348 181.917,0.348 L173.913,0.348 L173.913,20.648 L177.48,20.648 L177.48,14.123 L181.511,14.123 C182.632333,14.123 183.686,13.9731667 184.672,13.6735 C185.658,13.3738333 186.518333,12.934 187.253,12.354 C187.987667,11.774 188.567667,11.049 188.993,10.179 C189.418333,9.309 189.631,8.30366667 189.631,7.163 Z M186.006,7.25 C186.006,8.352 185.6145,9.2365 184.8315,9.9035 C184.0485,10.5705 182.980333,10.904 181.627,10.904 L177.48,10.904 L177.48,3.596 L181.627,3.596 C182.961,3.596 184.024333,3.9005 184.817,4.5095 C185.609667,5.1185 186.006,6.032 186.006,7.25 Z" id="Shape"></path>
                <polygon id="Path" points="206.538 12.093 206.538 20.648 210.105 20.648 210.105 0.348 206.538 0.348 206.538 8.787 196.852 8.787 196.852 0.348 193.285 0.348 193.285 20.648 196.852 20.648 196.852 12.093"></polygon>
                <polygon id="Path" points="224.895 12.557 232.957 0.348 228.868 0.348 223.126 9.338 217.442 0.348 213.237 0.348 221.299 12.644 221.299 20.648 224.895 20.648"></polygon>
            </g>
            <g id="SOCREATIVE">
                <path d="M4.379,5.655 C4.379,4.97833333 4.669,4.40316667 5.249,3.9295 C5.829,3.45583333 6.641,3.219 7.685,3.219 C8.613,3.219 9.53133333,3.39783333 10.44,3.7555 C11.3486667,4.11316667 12.267,4.63033333 13.195,5.307 L15.109,2.61 C14.065,1.77866667 12.9485,1.1455 11.7595,0.7105 C10.5705,0.2755 9.23166667,0.058 7.743,0.058 C6.73766667,0.058 5.80966667,0.198166667 4.959,0.4785 C4.10833333,0.758833333 3.3785,1.16 2.7695,1.682 C2.1605,2.204 1.682,2.8275 1.334,3.5525 C0.986,4.2775 0.812,5.08466667 0.812,5.974 C0.812,6.92133333 0.961833333,7.72366667 1.2615,8.381 C1.56116667,9.03833333 1.99616667,9.599 2.5665,10.063 C3.13683333,10.527 3.8425,10.9136667 4.6835,11.223 C5.5245,11.5323333 6.48633333,11.8126667 7.569,12.064 C8.51633333,12.296 9.28483333,12.5183333 9.8745,12.731 C10.4641667,12.9436667 10.9281667,13.1708333 11.2665,13.4125 C11.6048333,13.6541667 11.8368333,13.92 11.9625,14.21 C12.0881667,14.5 12.151,14.8286667 12.151,15.196 C12.151,15.9886667 11.8271667,16.617 11.1795,17.081 C10.5318333,17.545 9.657,17.777 8.555,17.777 C7.279,17.777 6.13833333,17.5498333 5.133,17.0955 C4.12766667,16.6411667 3.132,15.9886667 2.146,15.138 L5.68434189e-14,17.69 C1.218,18.792 2.54233333,19.6088333 3.973,20.1405 C5.40366667,20.6721667 6.902,20.938 8.468,20.938 C9.53133333,20.938 10.5076667,20.8026667 11.397,20.532 C12.2863333,20.2613333 13.05,19.865 13.688,19.343 C14.326,18.821 14.8238333,18.183 15.1815,17.429 C15.5391667,16.675 15.718,15.8146667 15.718,14.848 C15.718,13.9973333 15.5778333,13.2578333 15.2975,12.6295 C15.0171667,12.0011667 14.6063333,11.4501667 14.065,10.9765 C13.5236667,10.5028333 12.8421667,10.1016667 12.0205,9.773 C11.1988333,9.44433333 10.2563333,9.14466667 9.193,8.874 C8.22633333,8.642 7.42883333,8.41966667 6.8005,8.207 C6.17216667,7.99433333 5.67916667,7.76233333 5.3215,7.511 C4.96383333,7.25966667 4.71733333,6.989 4.582,6.699 C4.44666667,6.409 4.379,6.061 4.379,5.655 Z" id="Path"></path>
                <path d="M40.252,10.469 C40.252,9.03833333 39.991,7.685 39.469,6.409 C38.947,5.133 38.222,4.02133333 37.294,3.074 C36.366,2.12666667 35.2543333,1.3775 33.959,0.8265 C32.6636667,0.2755 31.233,0 29.667,0 C28.101,0 26.6703333,0.280333333 25.375,0.841 C24.0796667,1.40166667 22.9583333,2.1605 22.011,3.1175 C21.0636667,4.0745 20.329,5.191 19.807,6.467 C19.285,7.743 19.024,9.09633333 19.024,10.527 C19.024,11.9576667 19.285,13.311 19.807,14.587 C20.329,15.863 21.054,16.9746667 21.982,17.922 C22.91,18.8693333 24.0216667,19.6185 25.317,20.1695 C26.6123333,20.7205 28.043,20.996 29.609,20.996 C31.175,20.996 32.6056667,20.7156667 33.901,20.155 C35.1963333,19.5943333 36.3176667,18.8355 37.265,17.8785 C38.2123333,16.9215 38.947,15.805 39.469,14.529 C39.991,13.253 40.252,11.8996667 40.252,10.469 Z M36.511,10.527 C36.511,11.513 36.3418333,12.4458333 36.0035,13.3255 C35.6651667,14.2051667 35.1963333,14.9688333 34.597,15.6165 C33.9976667,16.2641667 33.2775,16.7765 32.4365,17.1535 C31.5955,17.5305 30.6723333,17.719 29.667,17.719 C28.6616667,17.719 27.7336667,17.5256667 26.883,17.139 C26.0323333,16.7523333 25.3025,16.2303333 24.6935,15.573 C24.0845,14.9156667 23.6108333,14.1471667 23.2725,13.2675 C22.9341667,12.3878333 22.765,11.455 22.765,10.469 C22.765,9.483 22.9341667,8.55016667 23.2725,7.6705 C23.6108333,6.79083333 24.0796667,6.02716667 24.679,5.3795 C25.2783333,4.73183333 25.9985,4.2195 26.8395,3.8425 C27.6805,3.4655 28.6036667,3.277 29.609,3.277 C30.6143333,3.277 31.5423333,3.47033333 32.393,3.857 C33.2436667,4.24366667 33.9735,4.76566667 34.5825,5.423 C35.1915,6.08033333 35.6651667,6.84883333 36.0035,7.7285 C36.3418333,8.60816667 36.511,9.541 36.511,10.527 Z" id="Shape"></path>
                <path d="M62.234,17.4 L59.943,15.08 C59.073,15.892 58.1933333,16.5348333 57.304,17.0085 C56.4146667,17.4821667 55.3513333,17.719 54.114,17.719 C53.1473333,17.719 52.2531667,17.5305 51.4315,17.1535 C50.6098333,16.7765 49.8993333,16.2593333 49.3,15.602 C48.7006667,14.9446667 48.2366667,14.1761667 47.908,13.2965 C47.5793333,12.4168333 47.415,11.4743333 47.415,10.469 C47.415,9.46366667 47.5793333,8.526 47.908,7.656 C48.2366667,6.786 48.7006667,6.02716667 49.3,5.3795 C49.8993333,4.73183333 50.6098333,4.2195 51.4315,3.8425 C52.2531667,3.4655 53.1473333,3.277 54.114,3.277 C55.274,3.277 56.3083333,3.509 57.217,3.973 C58.1256667,4.437 58.986,5.046 59.798,5.8 L62.089,3.161 C61.6056667,2.697 61.0933333,2.27166667 60.552,1.885 C60.0106667,1.49833333 59.421,1.16483333 58.783,0.8845 C58.145,0.604166667 57.4441667,0.386666667 56.6805,0.232 C55.9168333,0.0773333333 55.071,0 54.143,0 C52.5963333,0 51.185,0.2755 49.909,0.8265 C48.633,1.3775 47.531,2.1315 46.603,3.0885 C45.675,4.0455 44.9548333,5.162 44.4425,6.438 C43.9301667,7.714 43.674,9.077 43.674,10.527 C43.674,11.9963333 43.935,13.369 44.457,14.645 C44.979,15.921 45.6991667,17.0278333 46.6175,17.9655 C47.5358333,18.9031667 48.6233333,19.6426667 49.88,20.184 C51.1366667,20.7253333 52.5093333,20.996 53.998,20.996 C54.9453333,20.996 55.8105,20.9138333 56.5935,20.7495 C57.3765,20.5851667 58.0966667,20.3435 58.754,20.0245 C59.4113333,19.7055 60.0251667,19.3285 60.5955,18.8935 C61.1658333,18.4585 61.712,17.9606667 62.234,17.4 Z" id="Path"></path>
                <path d="M83.201,20.648 L77.72,12.963 C78.4353333,12.7696667 79.0878333,12.4941667 79.6775,12.1365 C80.2671667,11.7788333 80.7746667,11.3438333 81.2,10.8315 C81.6253333,10.3191667 81.9588333,9.7295 82.2005,9.0625 C82.4421667,8.3955 82.563,7.63666667 82.563,6.786 C82.563,5.8 82.389,4.90583333 82.041,4.1035 C81.693,3.30116667 81.1951667,2.6245 80.5475,2.0735 C79.8998333,1.5225 79.1071667,1.09716667 78.1695,0.7975 C77.2318333,0.497833333 76.183,0.348 75.023,0.348 L65.975,0.348 L65.975,20.648 L69.542,20.648 L69.542,13.572 L74.008,13.572 L78.996,20.648 L83.201,20.648 Z M78.938,6.989 C78.938,8.033 78.561,8.86433333 77.807,9.483 C77.053,10.1016667 76.038,10.411 74.762,10.411 L69.542,10.411 L69.542,3.596 L74.733,3.596 C76.067,3.596 77.1013333,3.88116667 77.836,4.4515 C78.5706667,5.02183333 78.938,5.86766667 78.938,6.989 Z" id="Shape"></path>
                <polygon id="Path" points="101.993 0.348 86.942 0.348 86.942 20.648 102.138 20.648 102.138 17.458 90.509 17.458 90.509 12.006 100.688 12.006 100.688 8.816 90.509 8.816 90.509 3.538 101.993 3.538"></polygon>
                <path d="M116.87,0.203 L113.564,0.203 L104.632,20.648 L108.286,20.648 L110.374,15.747 L119.973,15.747 L122.032,20.648 L125.802,20.648 L116.87,0.203 Z M118.668,12.586 L111.679,12.586 L115.159,4.466 L118.668,12.586 Z" id="Shape"></path>
                <polygon id="Path" points="135.256 3.654 141.694 3.654 141.694 0.348 125.222 0.348 125.222 3.654 131.66 3.654 131.66 20.648 135.256 20.648"></polygon>
                <polygon id="Path" points="145.667 0.348 145.667 20.648 149.234 20.648 149.234 0.348"></polygon>
                <polygon id="Path" points="162.98 15.95 156.861 0.348 152.917 0.348 161.356 20.793 164.488 20.793 172.927 0.348 169.07 0.348"></polygon>
                <polygon id="Path" points="191.458 0.348 176.407 0.348 176.407 20.648 191.603 20.648 191.603 17.458 179.974 17.458 179.974 12.006 190.153 12.006 190.153 8.816 179.974 8.816 179.974 3.538 191.458 3.538"></polygon>
            </g>
        </g>
    </g>
</svg>